<?xml version="1.0" encoding="UTF-8" standalone="no"?>
<!-- Created with Inkscape (http://www.inkscape.org/) -->

<svg
   width="20.620001mm"
   height="128.5mm"
   viewBox="0 0 20.620002 128.50002"
   version="1.1"
   id="svg8"
   inkscape:version="1.2.2 (b0a8486541, 2022-12-01)"
   sodipodi:docname="TwoWayExpander.svg"
   xml:space="preserve"
   xmlns:inkscape="http://www.inkscape.org/namespaces/inkscape"
   xmlns:sodipodi="http://sodipodi.sourceforge.net/DTD/sodipodi-0.dtd"
   xmlns:xlink="http://www.w3.org/1999/xlink"
   xmlns="http://www.w3.org/2000/svg"
   xmlns:svg="http://www.w3.org/2000/svg"
   xmlns:rdf="http://www.w3.org/1999/02/22-rdf-syntax-ns#"
   xmlns:cc="http://creativecommons.org/ns#"
   xmlns:dc="http://purl.org/dc/elements/1.1/"><defs
     id="defs2"><linearGradient
       inkscape:collect="always"
       id="linearGradient840"><stop
         style="stop-color:#16502d;stop-opacity:1;"
         offset="0"
         id="stop836" /><stop
         style="stop-color:#163650;stop-opacity:1;"
         offset="1"
         id="stop838" /></linearGradient><linearGradient
       inkscape:collect="always"
       xlink:href="#linearGradient840"
       id="linearGradient842"
       x1="29.399649"
       y1="296.25482"
       x2="90.871651"
       y2="154.06741"
       gradientUnits="userSpaceOnUse"
       gradientTransform="matrix(0.67650915,0,0,1,15.24,0)" /></defs><sodipodi:namedview
     id="base"
     pagecolor="#ffffff"
     bordercolor="#666666"
     borderopacity="1.0"
     inkscape:pageopacity="0.0"
     inkscape:pageshadow="2"
     inkscape:zoom="3.959798"
     inkscape:cx="-12.626907"
     inkscape:cy="230.44105"
     inkscape:document-units="mm"
     inkscape:current-layer="layer1"
     showgrid="true"
     units="mm"
     inkscape:snap-bbox="true"
     inkscape:snap-page="true"
     inkscape:bbox-nodes="false"
     inkscape:snap-bbox-edge-midpoints="false"
     inkscape:window-width="1920"
     inkscape:window-height="1018"
     inkscape:window-x="0"
     inkscape:window-y="0"
     inkscape:window-maximized="1"
     inkscape:snap-bbox-midpoints="true"
     inkscape:snap-nodes="false"
     inkscape:showpageshadow="2"
     inkscape:pagecheckerboard="0"
     inkscape:deskcolor="#d1d1d1"><inkscape:grid
       type="xygrid"
       id="grid409"
       originx="6.4306647e-07"
       originy="1.0351565e-06" /></sodipodi:namedview><metadata
     id="metadata5"><rdf:RDF><cc:Work
         rdf:about=""><dc:format>image/svg+xml</dc:format><dc:type
           rdf:resource="http://purl.org/dc/dcmitype/StillImage" /></cc:Work></rdf:RDF></metadata><g
     inkscape:label="Layer 1"
     inkscape:groupmode="layer"
     id="layer1"
     transform="translate(-15.240002,-168.49997)"><rect
       style="display:inline;opacity:1;vector-effect:none;fill:url(#linearGradient842);fill-opacity:1;fill-rule:evenodd;stroke:none;stroke-width:0.534098;stroke-linecap:butt;stroke-linejoin:miter;stroke-miterlimit:4;stroke-dasharray:none;stroke-dashoffset:0;stroke-opacity:1;paint-order:normal;image-rendering:auto"
       id="rect420"
       width="20.620001"
       height="128.5"
       x="15.240002"
       y="168.49997" /><g
       inkscape:label="silkscreen"
       id="layer1-6"
       transform="matrix(0.26458333,0,0,0.26458333,-31.367818,156.61284)"><path
         inkscape:connector-curvature="0"
         id="path3015"
         style="font-style:normal;font-variant:normal;font-weight:500;font-stretch:normal;font-size:12px;line-height:125%;font-family:OCRA;-inkscape-font-specification:'OCRA Medium';text-align:start;letter-spacing:0px;word-spacing:0px;writing-mode:lr-tb;text-anchor:start;fill:#461621;fill-opacity:1;stroke:none"
         d="m 228.50553,502.44523 c 0.08,-0.016 0.16399,-0.012 0.252,0.012 0.024,0.008 0.06,0.02 0.108,0.036 0.11199,0.056 0.19599,0.14401 0.252,0.264 0.024,0.04 0.41199,1.35601 1.164,3.948 0.75999,2.59201 1.13999,3.90001 1.14,3.924 0.008,0.024 0.012,0.06 0.012,0.108 -1e-5,0.19201 -0.076,0.344 -0.228,0.456 -0.14401,0.112 -0.30801,0.144 -0.492,0.096 -0.18401,-0.048 -0.31201,-0.164 -0.384,-0.348 -0.008,-0.032 -0.088,-0.29999 -0.24,-0.804 l -0.216,-0.756 h -1.272 -1.26 l -0.228,0.768 c -0.144,0.51201 -0.224,0.78001 -0.24,0.804 -0.04,0.11201 -0.112,0.2 -0.216,0.264 -0.16,0.112 -0.332,0.132 -0.516,0.06 -0.184,-0.08 -0.3,-0.21599 -0.348,-0.408 -0.024,-0.088 -0.024,-0.17599 0,-0.264 0.008,-0.048 0.388,-1.35199 1.14,-3.912 0.75199,-2.56799 1.13199,-3.86399 1.14,-3.888 0.024,-0.064 0.068,-0.12799 0.132,-0.192 0.088,-0.088 0.18799,-0.14399 0.3,-0.168 m 0.564,4.212 c -0.30401,-1.05599 -0.45601,-1.58399 -0.456,-1.584 -1e-5,-0.008 -0.024,0.06 -0.072,0.204 -0.04,0.13601 -0.096,0.32801 -0.168,0.576 -0.072,0.24001 -0.14801,0.50401 -0.228,0.792 l -0.468,1.584 h 0.468 c 0.31199,1e-5 0.61999,1e-5 0.924,0 h 0.468 l -0.468,-1.572" /><path
         inkscape:connector-curvature="0"
         id="path3017"
         style="font-style:normal;font-variant:normal;font-weight:500;font-stretch:normal;font-size:12px;line-height:125%;font-family:OCRA;-inkscape-font-specification:'OCRA Medium';text-align:start;letter-spacing:0px;word-spacing:0px;writing-mode:lr-tb;text-anchor:start;fill:#000000;fill-opacity:1;stroke:none"
         d="m 234.35965,506.87323 v -4.44 h 1.788 l 1.788,0.012 0.108,0.012 c 0.52,0.08 0.956,0.30001 1.308,0.66 0.112,0.11201 0.212,0.23201 0.3,0.36 0.2,0.30401 0.32,0.64801 0.36,1.032 0.008,0.072 0.012,0.21601 0.012,0.432 0,0.21601 -0.004,0.36001 -0.012,0.432 -0.056,0.55201 -0.276,1.01601 -0.66,1.392 l -0.108,0.108 0.108,0.108 c 0.112,0.10401 0.212,0.22401 0.3,0.36 0.184,0.28001 0.3,0.59601 0.348,0.948 0.016,0.08 0.024,0.25201 0.024,0.516 0,0.26401 -0.008,0.43601 -0.024,0.516 -0.064,0.42401 -0.224,0.80001 -0.48,1.128 -0.104,0.13601 -0.224,0.25601 -0.36,0.36 -0.304,0.24001 -0.648,0.396 -1.032,0.468 -0.136,0.024 -0.812,0.036 -2.028,0.036 h -1.74 v -4.44 m 3.588,-3.264 -0.084,-0.024 h -1.176 -1.188 v 1.356 1.356 h 1.188 1.176 l 0.084,-0.024 c 0.224,-0.048 0.412,-0.14399 0.564,-0.288 0.16,-0.15199 0.268,-0.33599 0.324,-0.552 0.024,-0.10399 0.036,-0.28399 0.036,-0.54 0,-0.19999 -0.008,-0.32399 -0.024,-0.372 -0.072,-0.37599 -0.276,-0.64799 -0.612,-0.816 -0.088,-0.04 -0.184,-0.072 -0.288,-0.096 m 0,3.852 -0.084,-0.012 h -1.176 -1.188 v 1.356 1.356 h 1.188 1.176 l 0.084,-0.012 c 0.368,-0.08 0.636,-0.28399 0.804,-0.612 0.048,-0.096 0.08,-0.19999 0.096,-0.312 0.016,-0.048 0.024,-0.18799 0.024,-0.42 0,-0.23199 -0.008,-0.37199 -0.024,-0.42 -0.072,-0.37599 -0.276,-0.64799 -0.612,-0.816 -0.088,-0.048 -0.184,-0.084 -0.288,-0.108" /><path
         inkscape:connector-curvature="0"
         id="path3019"
         style="font-style:normal;font-variant:normal;font-weight:500;font-stretch:normal;font-size:12px;line-height:125%;font-family:OCRA;-inkscape-font-specification:'OCRA Medium';text-align:start;letter-spacing:0px;word-spacing:0px;writing-mode:lr-tb;text-anchor:start;fill:#000000;fill-opacity:1;stroke:none"
         d="m 244.05378,502.44523 c 0.048,-0.008 0.576,-0.012 1.584,-0.012 1.00799,1e-5 1.53999,0.004 1.596,0.012 0.36799,0.048 0.67599,0.20001 0.924,0.456 0.24799,0.25601 0.39199,0.56401 0.432,0.924 0.032,0.24001 -0.024,0.42801 -0.168,0.564 -0.11201,0.10401 -0.24401,0.15601 -0.396,0.156 -0.056,10e-6 -0.10801,-0.004 -0.156,-0.012 -0.10401,-0.032 -0.18801,-0.084 -0.252,-0.156 -0.096,-0.10399 -0.15201,-0.23599 -0.168,-0.396 -1e-5,-0.056 -0.008,-0.10399 -0.024,-0.144 -0.04,-0.11199 -0.12001,-0.18799 -0.24,-0.228 l -0.048,-0.024 h -1.476 -1.488 l -0.024,0.024 c -0.072,0.048 -0.092,0.10801 -0.06,0.18 0.016,0.016 0.72799,0.93201 2.136,2.748 1.41599,1.81601 2.13599,2.74001 2.16,2.772 0.11199,0.16801 0.17999,0.35201 0.204,0.552 0.04,0.32001 -0.032,0.61601 -0.216,0.888 -0.18401,0.26401 -0.43201,0.436 -0.744,0.516 -0.088,0.024 -0.19601,0.04 -0.324,0.048 -0.12001,0 -0.59601,0 -1.428,0 -1.00001,0 -1.528,-0.004 -1.584,-0.012 -0.368,-0.048 -0.676,-0.2 -0.924,-0.456 -0.248,-0.25599 -0.392,-0.56399 -0.432,-0.924 -0.024,-0.22399 0.028,-0.40399 0.156,-0.54 0.072,-0.08 0.16,-0.13199 0.264,-0.156 0.04,-0.016 0.088,-0.024 0.144,-0.024 0.152,10e-6 0.284,0.052 0.396,0.156 0.112,0.10401 0.172,0.24001 0.18,0.408 0.008,0.064 0.016,0.11201 0.024,0.144 0.048,0.11201 0.128,0.18801 0.24,0.228 l 0.048,0.024 h 1.476 1.464 l 0.036,-0.012 c 0.088,-0.04 0.11199,-0.1 0.072,-0.18 -1e-5,-0.016 -0.71201,-0.93199 -2.136,-2.748 -1.416,-1.82399 -2.136,-2.75199 -2.16,-2.784 -0.136,-0.21599 -0.204,-0.45199 -0.204,-0.708 0,-0.26399 0.072,-0.49999 0.216,-0.708 0.216,-0.32799 0.516,-0.51999 0.9,-0.576" /><path
         inkscape:connector-curvature="0"
         id="path3096"
         style="font-style:normal;font-variant:normal;font-weight:500;font-stretch:normal;font-size:28px;line-height:125%;font-family:OCRA;-inkscape-font-specification:'OCRA Medium';text-align:start;letter-spacing:0px;word-spacing:0px;writing-mode:lr-tb;text-anchor:start;fill:#000000;fill-opacity:1;stroke:none"
         d="m 182.34374,502.29445 c 0.18667,-0.0373 0.38267,-0.028 0.588,0.028 0.056,0.0187 0.14,0.0467 0.252,0.084 0.26133,0.13069 0.45733,0.33602 0.588,0.616 0.0747,0.14935 0.112,0.30802 0.112,0.476 0.0187,0.14935 0.028,0.85869 0.028,2.128 l 0.028,2.268 1.96,5.012 c 0.336,0.91468 0.65333,1.75468 0.952,2.52 0.31733,0.76534 0.55999,1.37201 0.728,1.82 0.18666,0.44801 0.27999,0.67201 0.28,0.672 -10e-6,-0.0187 0.65333,-1.69866 1.96,-5.04 l 1.96,-5.012 v -2.184 c -1e-5,-1.53065 0.028,-2.37065 0.084,-2.52 0.056,-0.16798 0.15866,-0.32665 0.308,-0.476 0.16799,-0.16798 0.33599,-0.27998 0.504,-0.336 0.35466,-0.11198 0.69999,-0.0933 1.036,0.056 0.27999,0.13069 0.48532,0.33602 0.616,0.616 0.0746,0.14935 0.11199,0.31735 0.112,0.504 0.0186,0.16802 0.028,0.95202 0.028,2.352 v 2.492 l -2.688,6.916 c -1.79201,4.592 -2.70667,6.916 -2.744,6.972 -0.056,0.13067 -0.14934,0.252 -0.28,0.364 -0.33601,0.31733 -0.72801,0.42933 -1.176,0.336 -0.42934,-0.0933 -0.74667,-0.34533 -0.952,-0.756 -0.0187,-0.0747 -0.896,-2.324 -2.632,-6.748 -1.71733,-4.42399 -2.604,-6.71065 -2.66,-6.86 l -0.084,-0.224 v -2.436 c 0,-1.69865 0.028,-2.62265 0.084,-2.772 0.056,-0.16798 0.15867,-0.32665 0.308,-0.476 0.20533,-0.20531 0.43867,-0.33598 0.7,-0.392" /><path
         inkscape:connector-curvature="0"
         id="path3098"
         style="font-style:normal;font-variant:normal;font-weight:500;font-stretch:normal;font-size:28px;line-height:125%;font-family:OCRA;-inkscape-font-specification:'OCRA Medium';text-align:start;letter-spacing:0px;word-spacing:0px;writing-mode:lr-tb;text-anchor:start;fill:#000000;fill-opacity:1;stroke:none"
         d="m 205.54326,502.29445 c 0.14932,-0.0186 0.95199,-0.028 2.408,-0.028 1.45598,2e-5 2.22132,0.009 2.296,0.028 0.31732,0.056 0.57865,0.21469 0.784,0.476 0.20532,0.24269 0.30798,0.52269 0.308,0.84 -2e-5,0.26135 -0.0747,0.51335 -0.224,0.756 -0.14935,0.22402 -0.34535,0.38269 -0.588,0.476 -0.13068,0.056 -0.28002,0.0933 -0.448,0.112 -0.14935,2e-5 -0.83068,2e-5 -2.044,0 -1.25068,2e-5 -1.96001,0.009 -2.128,0.028 -0.14935,2e-5 -0.29868,0.0374 -0.448,0.112 -0.14935,0.0747 -0.30801,0.21468 -0.476,0.42 -0.16801,0.18668 -0.75601,0.93335 -1.764,2.24 -1.23201,1.58668 -1.87601,2.41735 -1.932,2.492 -0.18667,0.28001 -0.32667,0.61601 -0.42,1.008 l -0.028,0.168 v 3.892 c -1e-5,2.57601 0.009,3.90134 0.028,3.976 0.11199,0.41067 0.35466,0.7 0.728,0.868 0.13066,0.0747 0.28932,0.12134 0.476,0.14 0.20532,0 1.09199,0 2.66,0 1.58665,0 2.47332,0 2.66,0 0.20532,-0.0187 0.38265,-0.0653 0.532,-0.14 0.27999,-0.13066 0.48532,-0.336 0.616,-0.616 0.0746,-0.14933 0.11198,-0.28 0.112,-0.392 0.0186,-0.13066 0.028,-0.60666 0.028,-1.428 v -1.512 h -1.372 c -0.97068,10e-6 -1.54001,-0.028 -1.708,-0.084 -0.16801,-0.056 -0.32668,-0.15866 -0.476,-0.308 -0.14934,-0.14933 -0.25201,-0.31733 -0.308,-0.504 -0.11201,-0.27999 -0.12134,-0.56932 -0.028,-0.868 0.0747,-0.18666 0.18666,-0.35466 0.336,-0.504 0.14932,-0.14932 0.30799,-0.25199 0.476,-0.308 0.16799,-0.056 1.18532,-0.084 3.052,-0.084 h 2.716 v 2.828 c -2e-5,1.86667 -0.009,2.89334 -0.028,3.08 -0.056,0.448 -0.18668,0.87734 -0.392,1.288 -0.29868,0.59734 -0.72802,1.092 -1.288,1.484 -0.54135,0.392 -1.14802,0.63467 -1.82,0.728 -0.18668,0.0187 -1.21335,0.028 -3.08,0.028 -2.01601,0 -3.16401,-0.028 -3.444,-0.084 -0.44801,-0.112 -0.86801,-0.28 -1.26,-0.504 -1.10134,-0.69067 -1.72667,-1.68933 -1.876,-2.996 -0.0373,-0.168 -0.056,-1.52133 -0.056,-4.06 0.0187,-2.53866 0.0373,-3.90132 0.056,-4.088 0.0747,-0.91465 0.36399,-1.73599 0.868,-2.464 0.0933,-0.13065 0.76533,-1.00798 2.016,-2.632 1.26932,-1.64265 1.96932,-2.51998 2.1,-2.632 0.65332,-0.69065 1.44666,-1.10131 2.38,-1.232" /><path
         inkscape:connector-curvature="0"
         id="path3100"
         style="font-style:normal;font-variant:normal;font-weight:500;font-stretch:normal;font-size:28px;line-height:125%;font-family:OCRA;-inkscape-font-specification:'OCRA Medium';text-align:start;letter-spacing:0px;word-spacing:0px;writing-mode:lr-tb;text-anchor:start;fill:#000000;fill-opacity:1;stroke:none"
         d="m 219.25888,502.29445 c 0.18667,-0.0373 0.38267,-0.028 0.588,0.028 0.18666,0.0374 0.35466,0.12135 0.504,0.252 0.20533,0.18669 0.35466,0.42002 0.448,0.7 0.0187,0.0747 0.028,2.93068 0.028,8.568 v 8.456 h 4.676 c 3.09866,0 4.68532,0.009 4.76,0.028 0.31732,0.056 0.57865,0.21467 0.784,0.476 0.20532,0.24267 0.30799,0.52267 0.308,0.84 -1e-5,0.31733 -0.10268,0.60667 -0.308,0.868 -0.20535,0.24267 -0.46668,0.392 -0.784,0.448 -0.0747,0.0187 -2.10934,0.028 -6.104,0.028 h -5.992 v -9.744 c 0,-5.28265 0,-8.25065 0,-8.904 0,-0.67198 0.028,-1.07331 0.084,-1.204 0.056,-0.14931 0.15867,-0.29865 0.308,-0.448 0.20533,-0.20531 0.43867,-0.33598 0.7,-0.392" /><path
         style="fill:#461621;fill-opacity:1;stroke-width:0.126269"
         d="M 7.0353077,20.889866 C 6.8805625,20.781478 6.6762683,20.539988 6.5813208,20.353223 6.4863732,20.166455 5.2366339,16.998144 3.8041225,13.312529 L 1.1995561,6.6114098 V 4.0282805 c 0,-2.832774 0.028705,-2.9568669 0.7730111,-3.34176256 0.5162584,-0.26696757 1.1767989,-0.0505322 1.5091326,0.49448856 0.2152359,0.3529825 0.2423464,0.6522681 0.2427657,2.6799975 4.546e-4,2.1720462 0.01651,2.3219315 0.3314818,3.0935922 0.1820555,0.4460232 0.9517906,2.4259802 1.7105226,4.3999038 1.6823645,4.376854 1.8832054,4.849098 2.0073806,4.720025 0.053699,-0.05582 0.9545259,-2.305074 2.0018368,-4.998346 l 1.9042017,-4.8968574 0.0071,-2.1742101 c 0.0083,-2.5340137 0.101111,-2.9290413 0.769101,-3.27371125 0.544975,-0.28119704 0.972136,-0.21128921 1.415,0.23157463 0.297914,0.29791392 0.309039,0.37910502 0.391887,2.86011542 l 0.08527,2.5534976 -0.839481,2.1465741 c -0.461715,1.1806158 -1.691333,4.334186 -2.732484,7.007933 -2.0471021,5.257101 -2.210983,5.555839 -3.0477903,5.555839 -0.2265198,0 -0.5384637,-0.08868 -0.693209,-0.197068 z"
         id="path21921"
         transform="translate(180.13563,501.78988)" /><path
         style="fill:#461621;fill-opacity:1;stroke-width:0.126269"
         d="m 20.549248,20.818604 c -0.909027,-0.349359 -1.815661,-1.253919 -2.140443,-2.135547 -0.315216,-0.85566 -0.43655,-3.867786 -0.30499,-7.571379 0.110257,-3.1038843 0.08711,-3.0495755 2.800001,-6.5702795 3.135092,-4.06862826 2.971969,-3.9731877 6.790808,-3.9731877 h 2.693349 l 0.368675,0.41236656 c 0.423339,0.47350614 0.486558,1.06777494 0.162771,1.53004654 -0.38551,0.550394 -0.876064,0.6461028 -3.311584,0.6461028 -1.97012,0 -2.297164,0.028591 -2.52765,0.2209708 -0.559559,0.4670481 -4.154379,5.2476448 -4.292381,5.7082536 -0.09342,0.311822 -0.142812,1.8842149 -0.142812,4.5468179 v 4.070154 l 0.435527,0.435526 0.435526,0.435528 3.173702,-0.03778 3.173702,-0.03778 0.368247,-0.412367 c 0.366361,-0.410253 0.368248,-0.420687 0.368248,-2.036629 V 14.42516 l -1.594321,-0.05308 -1.59432,-0.05308 -0.36285,-0.406101 c -0.49772,-0.557044 -0.495424,-1.172851 0.0062,-1.674518 l 0.369094,-0.369095 h 2.850767 2.850767 v 3.007964 c 0,3.659942 -0.05295,3.883365 -1.189629,5.020048 -1.155121,1.155121 -1.317858,1.190991 -5.367289,1.18305 -3.054123,-0.006 -3.414784,-0.02948 -4.019159,-0.26175 z"
         id="path21923"
         transform="translate(180.13563,501.78988)" /><path
         style="fill:#461621;fill-opacity:1;stroke-width:0.126269"
         d="m 38.070124,11.423295 c 0,-10.69696107 -0.02287,-10.3844664 0.784669,-10.72187781 0.556982,-0.23272192 1.046293,-0.1183519 1.426424,0.33340811 l 0.314288,0.3735105 v 8.5766085 8.5766087 h 4.741361 c 5.281888,0 5.344886,0.0092 5.687924,0.830199 0.231235,0.553426 0.12229,0.981441 -0.351229,1.379882 l -0.374714,0.3153 h -6.114361 -6.114362 z"
         id="path21925"
         transform="translate(180.13563,501.78988)" /><path
         style="fill:#461621;fill-opacity:1;stroke-width:0.126269"
         d="m 55.90563,4.4528737 c 0.329877,-0.026011 0.869678,-0.026011 1.199556,0 0.329878,0.026011 0.05998,0.047293 -0.599778,0.047293 -0.659756,0 -0.929656,-0.021282 -0.599778,-0.047293 z"
         id="path21927"
         transform="translate(180.13563,501.78988)" /><path
         style="fill:#461621;fill-opacity:1;stroke-width:0.126269"
         d="M 54.232564,5.1138972 V 0.7576144 h 1.977644 c 1.860137,0 2.008395,0.0180209 2.495172,0.3032911 0.729046,0.4272496 1.083023,1.1102661 1.083023,2.0897471 0,0.8098705 -0.109922,1.1404721 -0.534264,1.6068492 L 59.00397,5.0324515 59.36462,5.505287 c 0.328555,0.430758 0.360649,0.5644784 0.360649,1.5026462 0,0.9404781 -0.03159,1.0712256 -0.364149,1.5072346 -0.611293,0.8014461 -1.117526,0.94904 -3.266087,0.9522391 l -1.862469,0.00277 z m 4.241223,2.9287146 c 0.234115,-0.2724212 0.304464,-0.5004503 0.304464,-0.9868864 0,-1.2274133 -0.411751,-1.4998864 -2.266573,-1.4998864 h -1.268961 v 1.4629601 1.4629601 l 1.463303,-0.042433 c 1.423633,-0.041283 1.471557,-0.052038 1.767767,-0.3967144 z m -0.06463,-3.8660196 c 0.312459,-0.3124591 0.369094,-0.4689507 0.369094,-1.0198655 0,-0.5509149 -0.05663,-0.7074064 -0.369094,-1.0198656 C 58.045638,1.7733429 58.018932,1.7677669 56.64139,1.7677669 h -1.398673 v 1.3889598 1.3889597 h 1.398673 c 1.377542,0 1.404248,-0.00558 1.767767,-0.3690942 z"
         id="path21929"
         transform="translate(180.13563,501.78988)" /><path
         style="fill:#461621;fill-opacity:1;stroke-width:0.126269"
         d="M 63.568065,9.1840667 C 63.326124,9.0210225 63.065015,8.6917374 62.961035,8.4185388 62.790444,7.9703265 62.795632,7.9220609 63.040738,7.676955 63.37757,7.3401228 63.645402,7.4470154 63.881715,8.0125917 l 0.18695,0.4474358 h 1.647941 c 1.286512,0 1.647941,-0.036809 1.647941,-0.1678305 0,-0.092307 -0.971389,-1.413397 -2.158643,-2.9357558 -1.187254,-1.522359 -2.210126,-2.899716 -2.273049,-3.0607935 -0.15515,-0.3971668 -0.02719,-0.8327845 0.357672,-1.2176479 0.315335,-0.31533503 0.351119,-0.3203854 2.27005,-0.3203854 h 1.949665 l 0.362628,0.3626277 c 0.641362,0.641362 0.639534,1.4682738 -0.0032,1.4682738 -0.280213,0 -0.4147,-0.1453023 -0.555138,-0.5997781 -0.06044,-0.1955834 -0.256474,-0.2209709 -1.706291,-0.2209709 -0.900905,0 -1.668976,0.050106 -1.706825,0.1113471 -0.03785,0.061241 0.593984,0.9561728 1.404073,1.9887377 2.894968,3.6900182 3.069457,3.938953 3.066449,4.374759 -0.0031,0.4424417 -0.280757,0.8644795 -0.714938,1.0865217 -0.162636,0.083173 -0.970995,0.1410476 -1.970065,0.1410476 -1.55144,0 -1.730049,-0.024118 -2.118824,-0.2861133 z"
         id="path21931"
         transform="translate(180.13563,501.78988)" /></g><g
       aria-label="of"
       id="text1332"
       style="font-size:4.5861px;-inkscape-font-specification:'sans-serif, Normal';fill:#ffffff;stroke-width:0.264583"
       transform="translate(-0.20045214,8.4666671)"><path
         d="m 25.555652,224.21141 q 0,0.60995 -0.311854,0.94473 -0.307269,0.33479 -0.834671,0.33479 -0.325613,0 -0.582434,-0.14676 -0.252236,-0.15134 -0.398991,-0.43568 -0.146755,-0.28892 -0.146755,-0.69708 0,-0.60995 0.307269,-0.94015 0.307268,-0.3302 0.83467,-0.3302 0.334785,0 0.587021,0.15134 0.256821,0.14675 0.39899,0.43109 0.146755,0.27975 0.146755,0.68792 z m -1.85737,0 q 0,0.43568 0.169686,0.6925 0.174271,0.25223 0.550332,0.25223 0.371474,0 0.545746,-0.25223 0.174271,-0.25682 0.174271,-0.6925 0,-0.43568 -0.174271,-0.68333 -0.174272,-0.24765 -0.550332,-0.24765 -0.376061,0 -0.545746,0.24765 -0.169686,0.24765 -0.169686,0.68333 z"
         id="path4201" /><path
         d="m 27.325885,223.29877 h -0.619124 v 2.1463 h -0.403576 v -2.1463 h -0.431094 v -0.18803 l 0.431094,-0.13758 v -0.14217 q 0,-0.47695 0.21096,-0.68333 0.210961,-0.21096 0.587021,-0.21096 0.146755,0 0.265994,0.0275 0.123825,0.0229 0.21096,0.055 l -0.10548,0.31644 q -0.07338,-0.0229 -0.169686,-0.0459 -0.09631,-0.0229 -0.197202,-0.0229 -0.201788,0 -0.302683,0.13758 -0.09631,0.133 -0.09631,0.42193 v 0.16051 h 0.619124 z"
         id="path4203" /></g><g
       aria-label="My ID is"
       id="text1320"
       style="font-size:4.58611px;-inkscape-font-specification:'sans-serif, Normal';fill:#ffffff;stroke-width:0.264583"
       transform="translate(0,8.4666671)"><path
         d="m 18.616868,192.41663 -1.077736,-2.87091 h -0.01835 q 0.01376,0.14217 0.02293,0.38523 0.0092,0.23848 0.0092,0.49989 v 1.98579 h -0.380647 v -3.27449 h 0.609953 l 1.008944,2.68288 h 0.01834 l 1.027289,-2.68288 h 0.605366 v 3.27449 h -0.408163 v -2.01331 q 0,-0.23847 0.0092,-0.47237 0.01376,-0.23389 0.02293,-0.38064 h -0.01834 l -1.091494,2.86632 z"
         id="path4138" /><path
         d="m 20.891576,189.95847 h 0.431095 l 0.531988,1.39876 q 0.06879,0.18345 0.123825,0.35314 0.05503,0.16509 0.08255,0.31644 h 0.01835 q 0.02752,-0.11466 0.08714,-0.2981 0.05962,-0.18803 0.123825,-0.37606 l 0.499886,-1.39418 h 0.43568 l -1.059391,2.79753 q -0.128411,0.34854 -0.334786,0.55492 -0.201789,0.20637 -0.559506,0.20637 -0.110066,0 -0.192616,-0.0138 -0.08255,-0.009 -0.14217,-0.0229 v -0.32102 q 0.05045,0.009 0.119239,0.0183 0.07338,0.009 0.151342,0.009 0.210961,0 0.339372,-0.11924 0.132997,-0.11924 0.206375,-0.31644 l 0.128411,-0.32561 z"
         id="path4140" /><path
         d="m 25.784958,192.41663 h -1.183217 v -0.23848 l 0.385233,-0.0871 v -2.61867 l -0.385233,-0.0917 v -0.23848 h 1.183217 v 0.23848 l -0.385234,0.0917 v 2.61867 l 0.385234,0.0871 z"
         id="path4142" /><path
         d="m 29.0411,190.74728 q 0,0.83009 -0.454025,1.25201 -0.449439,0.41734 -1.256594,0.41734 h -0.912636 v -3.27449 h 1.008944 q 0.4953,0 0.857602,0.18345 0.362303,0.18344 0.559506,0.54116 0.197203,0.35313 0.197203,0.88053 z m -0.435681,0.0138 q 0,-0.65581 -0.325614,-0.9585 -0.321027,-0.30727 -0.912636,-0.30727 h -0.536574 v 2.56823 h 0.444852 q 1.329972,0 1.329972,-1.30246 z"
         id="path4144" /><path
         d="m 31.109434,189.03666 q 0.09172,0 0.160514,0.0642 0.07338,0.0596 0.07338,0.19261 0,0.12842 -0.07338,0.19262 -0.06879,0.0642 -0.160514,0.0642 -0.100894,0 -0.169686,-0.0642 -0.06879,-0.0642 -0.06879,-0.19262 0,-0.13299 0.06879,-0.19261 0.06879,-0.0642 0.169686,-0.0642 z m 0.197203,0.92181 v 2.45816 h -0.403578 v -2.45816 z"
         id="path4146" /><path
         d="m 33.686825,191.73788 q 0,0.35772 -0.265995,0.54116 -0.265994,0.18345 -0.715433,0.18345 -0.256822,0 -0.444852,-0.0413 -0.183445,-0.0413 -0.325614,-0.11465 v -0.36689 q 0.146755,0.0734 0.35313,0.13758 0.210961,0.0596 0.426509,0.0596 0.307269,0 0.444852,-0.0963 0.137584,-0.10089 0.137584,-0.26599 0,-0.0917 -0.05045,-0.1651 -0.05045,-0.0734 -0.183444,-0.14675 -0.128411,-0.0734 -0.371475,-0.1651 -0.238478,-0.0917 -0.408164,-0.18345 -0.169686,-0.0917 -0.261408,-0.22013 -0.09172,-0.12841 -0.09172,-0.3302 0,-0.31186 0.252236,-0.48154 0.256822,-0.16969 0.669572,-0.16969 0.224719,0 0.417336,0.0459 0.197203,0.0413 0.366889,0.11924 l -0.137584,0.32103 q -0.155927,-0.0642 -0.325613,-0.11007 -0.169687,-0.0459 -0.348545,-0.0459 -0.24765,0 -0.380647,0.0825 -0.128411,0.078 -0.128411,0.21555 0,0.10089 0.05962,0.17427 0.05962,0.0688 0.197203,0.13758 0.14217,0.0642 0.376061,0.15593 0.233892,0.0871 0.398992,0.17886 0.1651,0.0917 0.252236,0.22472 0.08714,0.12841 0.08714,0.32561 z"
         id="path4148" /></g><g
       aria-label="I am"
       id="text1324"
       style="font-size:4.5861px;-inkscape-font-specification:'sans-serif, Normal';fill:#ffffff;stroke-width:0.264583"
       transform="translate(0,8.0043178)"><path
         d="m 22.086262,209.92503 h -1.183214 v -0.23847 l 0.385233,-0.0871 v -2.61866 l -0.385233,-0.0917 v -0.23848 h 1.183214 v 0.23848 l -0.385232,0.0917 v 2.61866 l 0.385232,0.0871 z"
         id="path4163" /><path
         d="m 24.78748,207.42561 q 0.449438,0 0.664984,0.1972 0.215547,0.1972 0.215547,0.6283 v 1.67392 h -0.29351 l -0.07796,-0.34854 h -0.01835 q -0.160513,0.20179 -0.339371,0.2981 -0.174272,0.0963 -0.486127,0.0963 -0.334785,0 -0.554918,-0.17427 -0.220132,-0.17886 -0.220132,-0.55492 0,-0.36688 0.288924,-0.56409 0.288924,-0.20178 0.889703,-0.22013 l 0.417335,-0.0138 v -0.14675 q 0,-0.30727 -0.132997,-0.42651 -0.132996,-0.11924 -0.37606,-0.11924 -0.192616,0 -0.366888,0.0596 -0.174272,0.055 -0.325613,0.12841 l -0.123825,-0.30268 q 0.160514,-0.0871 0.380647,-0.14676 0.220133,-0.0642 0.45861,-0.0642 z m 0.119238,1.31162 q -0.45861,0.0183 -0.637468,0.14676 -0.174271,0.12841 -0.174271,0.3623 0,0.20638 0.123824,0.30268 0.128411,0.0963 0.325613,0.0963 0.311855,0 0.51823,-0.16968 0.206374,-0.17428 0.206374,-0.53199 v -0.22013 z"
         id="path4165" /><path
         d="m 29.125934,207.42102 q 0.417335,0 0.62371,0.21555 0.206374,0.21096 0.206374,0.68791 v 1.60055 h -0.39899 v -1.5822 q 0,-0.58244 -0.499885,-0.58244 -0.357716,0 -0.513644,0.20638 -0.151341,0.20637 -0.151341,0.60078 v 1.35748 h -0.398991 v -1.5822 q 0,-0.58244 -0.504471,-0.58244 -0.371474,0 -0.513643,0.22931 -0.142169,0.2293 -0.142169,0.6604 v 1.27493 h -0.403577 v -2.45815 h 0.325613 l 0.05962,0.33479 h 0.02293 q 0.114653,-0.19262 0.307269,-0.28434 0.197202,-0.0963 0.417335,-0.0963 0.577849,0 0.75212,0.41275 h 0.02293 q 0.123825,-0.21096 0.334785,-0.31185 0.215547,-0.1009 0.454024,-0.1009 z"
         id="path4167" /></g><g
       aria-label="module"
       id="text1328"
       style="font-size:4.5861px;-inkscape-font-specification:'sans-serif, Normal';fill:#ffffff;stroke-width:0.264583"
       transform="translate(0,8.0043178)"><path
         d="m 20.194504,211.88166 q 0.417335,0 0.62371,0.21554 0.206374,0.21096 0.206374,0.68792 v 1.60055 h -0.39899 v -1.58221 q 0,-0.58243 -0.499885,-0.58243 -0.357716,0 -0.513643,0.20637 -0.151342,0.20638 -0.151342,0.60078 v 1.35749 h -0.39899 v -1.58221 q 0,-0.58243 -0.504471,-0.58243 -0.371475,0 -0.513644,0.2293 -0.142169,0.22931 -0.142169,0.6604 v 1.27494 h -0.403577 v -2.45815 h 0.325614 l 0.05962,0.33478 h 0.02293 q 0.114653,-0.19261 0.307269,-0.28434 0.197202,-0.0963 0.417335,-0.0963 0.577849,0 0.752121,0.41274 h 0.02293 q 0.123825,-0.21096 0.334785,-0.31185 0.215547,-0.10089 0.454024,-0.10089 z"
         id="path4176" /><path
         d="m 23.923001,213.152 q 0,0.60996 -0.311855,0.94474 -0.307268,0.33479 -0.83467,0.33479 -0.325613,0 -0.582435,-0.14676 -0.252235,-0.15134 -0.39899,-0.43568 -0.146756,-0.28892 -0.146756,-0.69709 0,-0.60995 0.307269,-0.94015 0.307269,-0.33019 0.83467,-0.33019 0.334786,0 0.587021,0.15134 0.256822,0.14675 0.398991,0.43109 0.146755,0.27975 0.146755,0.68791 z m -1.85737,0 q 0,0.43568 0.169685,0.69251 0.174272,0.25223 0.550332,0.25223 0.371474,0 0.545746,-0.25223 0.174272,-0.25683 0.174272,-0.69251 0,-0.43567 -0.174272,-0.68332 -0.174272,-0.24765 -0.550332,-0.24765 -0.37606,0 -0.545746,0.24765 -0.169685,0.24765 -0.169685,0.68332 z"
         id="path4178" /><path
         d="m 25.431826,214.43153 q -0.45861,0 -0.733776,-0.31644 -0.275166,-0.32103 -0.275166,-0.95391 0,-0.63288 0.275166,-0.95391 0.279752,-0.32561 0.738362,-0.32561 0.284338,0 0.463196,0.10548 0.183444,0.10548 0.298097,0.25682 h 0.02752 q -0.0046,-0.0596 -0.01834,-0.17427 -0.0092,-0.11924 -0.0092,-0.18803 v -0.98143 h 0.403577 v 3.48544 h -0.325613 l -0.05962,-0.3302 h -0.01834 q -0.110067,0.15592 -0.293511,0.26599 -0.183444,0.11007 -0.472368,0.11007 z m 0.06421,-0.33479 q 0.389818,0 0.545745,-0.21096 0.160514,-0.21555 0.160514,-0.64664 v -0.0734 q 0,-0.45861 -0.151341,-0.70167 -0.151342,-0.24765 -0.559505,-0.24765 -0.325613,0 -0.490712,0.26141 -0.160514,0.25682 -0.160514,0.6925 0,0.44026 0.160514,0.68333 0.165099,0.24306 0.495299,0.24306 z"
         id="path4180" /><path
         d="m 29.43549,211.92752 v 2.45815 h -0.330199 l -0.05962,-0.32562 h -0.01834 q -0.119239,0.19262 -0.330199,0.28434 -0.210961,0.0871 -0.449438,0.0871 -0.444852,0 -0.669571,-0.21096 -0.224719,-0.21555 -0.224719,-0.68333 v -1.60972 h 0.408163 v 1.5822 q 0,0.58702 0.545746,0.58702 0.408163,0 0.56409,-0.2293 0.160514,-0.22931 0.160514,-0.6604 v -1.27952 z"
         id="path4182" /><path
         d="m 30.618704,214.38567 h -0.403577 v -3.48544 h 0.403577 z"
         id="path4184" /><path
         d="m 32.347661,211.88166 q 0.316441,0 0.54116,0.13758 0.229305,0.13758 0.348544,0.38982 0.123824,0.24765 0.123824,0.58243 v 0.24306 h -1.683098 q 0.0092,0.41734 0.21096,0.63747 0.206375,0.21555 0.573263,0.21555 0.233891,0 0.412749,-0.0413 0.183444,-0.0459 0.37606,-0.12841 v 0.35313 q -0.18803,0.0825 -0.371474,0.11924 -0.183444,0.0413 -0.43568,0.0413 -0.348543,0 -0.619123,-0.14217 -0.265994,-0.14217 -0.417335,-0.42192 -0.146755,-0.28434 -0.146755,-0.6925 0,-0.40358 0.132997,-0.69251 0.137583,-0.28892 0.380646,-0.44485 0.247649,-0.15592 0.573262,-0.15592 z m -0.0046,0.33019 q -0.288924,0 -0.45861,0.18803 -0.165099,0.18345 -0.197202,0.51365 h 1.252005 q -0.0046,-0.31186 -0.146755,-0.50447 -0.142169,-0.19721 -0.449438,-0.19721 z"
         id="path4186" /></g><rect
       style="fill:none;fill-opacity:1;stroke:#461621;stroke-width:0.271651;stroke-linecap:butt;stroke-linejoin:round;stroke-dasharray:none;stroke-opacity:1"
       id="rect2406"
       width="18.300421"
       height="53.9809"
       x="16.279827"
       y="194.75372"
       ry="2.0713389" /><g
       aria-label="Two-Way
Expander
Demo"
       id="text13206"
       style="font-size:3.35139px;font-family:OCRA;-inkscape-font-specification:'OCRA, Normal';fill:#b9e9de;stroke-width:0.277;stroke-linejoin:round"><path
         d="m 17.450124,172.51121 v -0.22119 h 0.790928 0.790928 v 0.22119 q 0,0.23795 -0.01341,0.26811 -0.01005,0.0302 -0.03351,0.0536 -0.02346,0.0235 -0.05362,0.0369 -0.03016,0.0101 -0.06032,0.0101 -0.04022,0 -0.07038,-0.0134 -0.05697,-0.0302 -0.08043,-0.0871 -0.0034,-0.0134 -0.0067,-0.0235 0,-0.0134 -0.0034,-0.0302 0,-0.0168 0,-0.0536 v -0.0603 h -0.154164 -0.157516 v 1.01212 q 0,1.01548 -0.0034,1.02553 -0.02011,0.0737 -0.08379,0.10389 -0.06368,0.0302 -0.127353,0.007 -0.03016,-0.0101 -0.05697,-0.0369 -0.0067,-0.0101 -0.01341,-0.0168 -0.0067,-0.007 -0.01005,-0.0134 -0.0034,-0.007 -0.0067,-0.0134 -0.0034,-0.007 -0.0067,-0.0134 -0.01005,-0.0235 -0.01005,-0.12736 0,-0.10389 0,-0.92163 v -1.00542 H 17.92267 17.768506 v 0.0603 q 0,0.0369 0,0.0536 0,0.0168 -0.0034,0.0302 0,0.0101 -0.0067,0.0235 -0.01005,0.0302 -0.03686,0.0536 -0.02346,0.0235 -0.05362,0.0369 -0.02681,0.0101 -0.06033,0.0101 -0.03686,0 -0.06703,-0.0134 -0.06032,-0.0302 -0.08043,-0.0871 -0.01005,-0.0302 -0.01005,-0.26811 z"
         id="path14964" /><path
         d="m 19.943559,172.967 q 0.01676,-0.003 0.03351,0 0.01676,0 0.03351,0.003 0.01676,0.003 0.03016,0.0134 0.01676,0.007 0.03016,0.0168 0.01341,0.0101 0.02346,0.0235 0.01005,0.0101 0.02011,0.0302 0.01006,0.0168 0.01341,0.0302 0,0.003 0,0.0101 0,0.003 0,0.0101 0.0034,0.003 0.0034,0.0101 0,0.007 0,0.0134 0.0034,0.0302 0.01676,0.47254 l 0.01676,0.44239 0.05027,0.17092 q 0.01341,0.0469 0.02346,0.0871 0.0134,0.0402 0.02011,0.0637 0.0067,0.0201 0.0067,0.0201 0,0 0.103893,-0.18097 l 0.107245,-0.17763 v -0.18768 q 0,-0.20108 0.01005,-0.23124 0.02346,-0.057 0.07708,-0.0838 0.02011,-0.01 0.03351,-0.0134 0.01676,-0.003 0.03687,-0.003 0.02346,0 0.03686,0.003 0.01676,0.003 0.03686,0.0134 0.05362,0.0268 0.07708,0.0838 0.01006,0.0302 0.01006,0.23124 v 0.18768 l 0.103893,0.17763 q 0.107244,0.18097 0.107244,0.18097 0,0 0.0067,-0.0201 0.0067,-0.0235 0.01676,-0.0637 0.0134,-0.0402 0.02681,-0.0871 l 0.05027,-0.17092 0.01676,-0.44239 q 0.0134,-0.44238 0.01676,-0.47254 0.0034,-0.0436 0.01676,-0.0737 0.02346,-0.0469 0.07373,-0.0737 0.103893,-0.0503 0.184327,0.0369 0.03686,0.0369 0.04357,0.0871 0.0034,0.0168 -0.01341,0.48595 -0.0034,0.0938 -0.0067,0.18433 -0.0034,0.0871 -0.0067,0.15416 -0.0034,0.0637 -0.0034,0.10725 0,0.0402 -0.0034,0.0436 0,0.0201 -0.08379,0.30163 -0.0134,0.0469 -0.02346,0.0838 -0.01005,0.0369 -0.02011,0.067 -0.01005,0.0302 -0.01676,0.0536 -0.0067,0.0235 -0.0134,0.0402 -0.0034,0.0168 -0.0067,0.0302 -0.0034,0.0101 -0.0067,0.0168 0,0.003 -0.0034,0.007 -0.01341,0.0302 -0.04022,0.0536 -0.02681,0.0201 -0.06033,0.0302 l -0.110596,0.007 q -0.09719,0 -0.110596,-0.003 -0.05697,-0.007 -0.09384,-0.0503 -0.01676,-0.0134 -0.107244,-0.17092 -0.09049,-0.15752 -0.09384,-0.15752 0,0 -0.09049,0.15752 l -0.09049,0.15751 -0.02011,0.0201 q -0.01676,0.0134 -0.03016,0.0235 -0.01005,0.007 -0.02681,0.0134 -0.03016,0.0101 -0.14411,0.0101 -0.09719,0 -0.110596,-0.007 -0.07038,-0.0201 -0.100541,-0.0838 -0.0034,-0.003 -0.01006,-0.0201 -0.0034,-0.0168 -0.01676,-0.0503 -0.01005,-0.0369 -0.02681,-0.0905 -0.0134,-0.0536 -0.03686,-0.13741 -0.08379,-0.28152 -0.08714,-0.30163 0,-0.0201 -0.01676,-0.4893 0,-0.0201 0,-0.057 -0.01676,-0.42898 -0.0067,-0.45579 0,-0.003 0,-0.003 0.01341,-0.0402 0.04692,-0.067 0.03351,-0.0302 0.07708,-0.0402 z"
         id="path14966" /><path
         d="m 22.778835,172.967 q 0.02011,0 0.261408,0 0.2413,0 0.261409,0.003 0.02011,0.003 0.04692,0.0101 0.03016,0.007 0.04692,0.0134 0.03351,0.0134 0.07038,0.0369 0.04022,0.0201 0.06368,0.0369 0.03687,0.0302 0.08714,0.0771 0.05362,0.0436 0.06368,0.057 0.06033,0.057 0.09384,0.1307 0.03687,0.0737 0.04692,0.15752 0,0.007 0,0.0201 0.0034,0.0134 0.0034,0.0369 0,0.0235 0,0.067 0,0.0436 0,0.10389 0,0.057 0,0.15082 0,0.35524 -0.0034,0.38541 -0.02346,0.16421 -0.140758,0.28151 -0.03687,0.0369 -0.150813,0.13071 -0.08378,0.067 -0.197732,0.0938 -0.05697,0.0101 -0.298273,0.0101 -0.248003,0 -0.301626,-0.0101 -0.103893,-0.0235 -0.191029,-0.0905 -0.110596,-0.0871 -0.167569,-0.14746 -0.110596,-0.11395 -0.127353,-0.27817 -0.0034,-0.0235 -0.0034,-0.37535 0,-0.35525 0.0034,-0.38541 0.01005,-0.0804 0.04022,-0.14746 0.03351,-0.067 0.08714,-0.12401 0.06368,-0.067 0.170921,-0.14746 0.100541,-0.0771 0.234597,-0.0972 z m 0.492654,0.32509 q -0.0034,-0.003 -0.01005,-0.003 -0.0067,0 -0.03351,0 -0.02681,0 -0.06703,0 -0.03687,-0.003 -0.124001,-0.003 -0.231246,0 -0.254706,0.0101 -0.0134,0.003 -0.02681,0.01 -0.01005,0.007 -0.02011,0.0134 -0.01005,0.01 -0.07038,0.0637 -0.05362,0.0469 -0.07038,0.0637 -0.01341,0.0168 -0.02346,0.0469 l -0.0067,0.0168 v 0.35524 q 0,0.0302 0,0.0804 0,0.28822 0.01005,0.31168 l 0.0034,0.003 q 0.01676,0.0335 0.09719,0.10054 0.04692,0.0402 0.06032,0.0536 0.01676,0.0101 0.02681,0.0168 0.02681,0.0134 0.05362,0.0168 0.02681,0 0.217841,0 0.0134,0 0.03686,0 0.197732,0 0.221192,-0.0101 0.0034,-0.003 0.0034,-0.003 0.02346,-0.0101 0.100542,-0.0771 0.03351,-0.0268 0.04692,-0.0402 0.01676,-0.0134 0.02681,-0.0268 0.01341,-0.0134 0.01676,-0.0201 0.0034,-0.0101 0.01005,-0.0268 l 0.0067,-0.0201 v -0.35524 q 0,-0.24801 0,-0.30163 0,-0.057 -0.0034,-0.0637 -0.0034,-0.0134 -0.01341,-0.0302 -0.0067,-0.0201 -0.01676,-0.0302 0,0 -0.01676,-0.0134 -0.0134,-0.0134 -0.03351,-0.0302 -0.02011,-0.0201 -0.04022,-0.0369 -0.02011,-0.0168 -0.03687,-0.0302 -0.01676,-0.0168 -0.02346,-0.0201 -0.02011,-0.0134 -0.04692,-0.0201 z"
         id="path14968" /><path
         d="m 24.769561,173.37252 q 0.01341,-0.003 0.666927,-0.003 0.465843,0 0.559682,0.003 0.09384,0 0.103893,0.003 0.01005,0 0.02011,0.007 0.01341,0.003 0.02346,0.0101 0.01005,0.007 0.01676,0.0134 0.02681,0.0201 0.04357,0.0536 0.01676,0.0335 0.01676,0.1374 0,0 0,0.003 0,0.10055 -0.01676,0.13406 -0.01676,0.0335 -0.04357,0.0536 -0.02346,0.0201 -0.06033,0.0335 -0.01005,0 -0.103893,0.003 -0.09384,0 -0.556331,0 -0.184326,0 -0.308328,0 -0.124001,0 -0.204434,0 -0.07708,0 -0.113948,0 -0.03351,0 -0.03686,-0.003 -0.03351,-0.003 -0.06033,-0.0201 -0.01005,-0.007 -0.03016,-0.0235 -0.02011,-0.0201 -0.02681,-0.0335 0,0 -0.0034,-0.003 -0.0034,-0.007 -0.0067,-0.0101 0,-0.007 0,-0.0101 -0.0067,-0.0201 -0.01005,-0.0402 0,-0.0201 0,-0.0838 0,-0.0938 0.01005,-0.12065 0.01005,-0.0302 0.03687,-0.0603 0.03686,-0.0335 0.08378,-0.0436 z"
         id="path14970" /><path
         d="m 27.165805,172.29337 q 0.03351,-0.007 0.07038,0.003 0.03351,0.007 0.06033,0.0302 0.03686,0.0335 0.05362,0.0838 0.0034,0.0134 0.0034,0.94844 v 0.93839 l 0.04692,0.0737 0.04357,0.0771 h 0.06703 0.06368 l 0.04357,-0.0737 0.04692,-0.0771 v -0.53287 q 0,-0.44908 0,-0.496 0.0034,-0.0503 0.01676,-0.0771 0.01341,-0.0335 0.04022,-0.0536 0.02681,-0.0235 0.06033,-0.0335 0.01676,-0.003 0.04022,-0.003 0.01005,0 0.01676,0 0.0067,0 0.01005,0.003 0.0067,0 0.01005,0 0.0067,0 0.01005,0.003 0.0067,0 0.01341,0.003 0.0067,0.003 0.01341,0.007 0.04692,0.0235 0.07038,0.0737 0.01341,0.0268 0.01341,0.0771 0.0034,0.0469 0.0034,0.496 l 0.0034,0.53287 0.04357,0.0737 0.04357,0.0771 h 0.06703 0.06368 l 0.04692,-0.0771 0.04357,-0.0771 v -0.92833 q 0,-0.75407 0,-0.85126 0.0034,-0.0972 0.01005,-0.12065 0.01005,-0.0268 0.03686,-0.0536 0.03016,-0.0302 0.06032,-0.0402 0.03351,-0.0101 0.06368,-0.007 0.03016,0 0.06032,0.0134 0.06368,0.0335 0.08714,0.10389 0,0.0101 0,0.15081 0.0034,0.13741 0.0034,0.8412 v 0.98196 l -0.08714,0.14746 q -0.02346,0.0436 -0.04692,0.0804 -0.02011,0.0335 -0.03351,0.057 -0.01341,0.0235 -0.01676,0.0268 -0.02011,0.0335 -0.05362,0.0503 -0.0034,0.003 -0.01005,0.007 -0.0034,0.003 -0.01005,0.007 -0.0067,0 -0.0134,0.003 -0.0067,0 -0.01341,0.003 -0.0034,0 -0.01005,0 -0.01676,0.003 -0.191029,0.003 -0.174273,0 -0.19103,-0.007 -0.06368,-0.0201 -0.100541,-0.0804 l -0.01341,-0.0235 q -0.0034,0 -0.01676,0.0235 -0.03686,0.0603 -0.100542,0.0804 -0.0134,0.007 -0.180975,0.007 h -0.0034 -0.0034 q -0.177624,0 -0.19103,-0.003 -0.01676,0 -0.03351,-0.007 -0.01341,-0.007 -0.02681,-0.0134 -0.0034,-0.003 -0.01341,-0.007 -0.0067,-0.007 -0.01676,-0.0134 -0.0067,-0.0101 -0.01341,-0.0168 -0.0067,-0.0101 -0.01005,-0.0168 -0.01005,-0.0101 -0.09719,-0.16087 l -0.08714,-0.14746 v -0.9652 q 0,-0.79428 0,-0.89482 0.0034,-0.10054 0.01341,-0.12735 0.01005,-0.0302 0.03687,-0.057 0.02011,-0.0201 0.03686,-0.0302 0.02011,-0.01 0.04692,-0.0168 z"
         id="path14972" /><path
         d="m 29.883783,172.967 q 0.0067,0 0.335139,0 0.33849,0 0.382058,0.0101 0.0067,0.003 0.0067,0.003 0.09719,0.0235 0.174272,0.0838 0.08043,0.057 0.127353,0.14411 0.04692,0.0871 0.06033,0.18433 0,0.0201 0.01676,0.42898 0.0034,0.11059 0.0067,0.23124 0.0034,0.1173 0.0067,0.21784 0.0034,0.10054 0.0067,0.15082 0.0067,0.19438 0.0034,0.20778 -0.0067,0.057 -0.05027,0.0972 -0.06703,0.0637 -0.154164,0.0369 -0.08714,-0.0268 -0.110596,-0.1173 -0.0034,-0.0134 -0.0034,-0.0201 v -0.0101 q -0.0034,0 -0.117299,0.067 -0.134056,0.0771 -0.157515,0.0838 l -0.284868,0.003 q -0.224543,0 -0.261409,0 -0.03687,-0.003 -0.08043,-0.0134 -0.130704,-0.0335 -0.224543,-0.1307 -0.110596,-0.11395 -0.130704,-0.27481 -0.0034,-0.0302 -0.0034,-0.14746 0,-0.1173 0.0034,-0.14747 0.02011,-0.15751 0.130704,-0.27146 0.05362,-0.057 0.12065,-0.0905 0.06703,-0.0369 0.147461,-0.0503 l 0.02681,-0.003 h 0.351896 0.351896 l 0.02681,0.003 q 0.02681,0.007 0.04357,0.0134 0.02011,0.003 0.02011,0.003 0.0034,-0.003 -0.0034,-0.1173 -0.0034,-0.11395 -0.0034,-0.1307 -0.01005,-0.0436 -0.03687,-0.0737 -0.02681,-0.0302 -0.06703,-0.0436 l -0.02011,-0.007 -0.325085,-0.003 q -0.271462,0 -0.304976,0 -0.03351,-0.003 -0.06033,-0.0168 -0.06032,-0.0302 -0.08378,-0.10054 0,-0.007 -0.0034,-0.0101 0,-0.007 0,-0.0134 0,-0.007 0,-0.0201 0,-0.0268 0.0034,-0.0436 0.01005,-0.0302 0.03016,-0.057 0.04022,-0.0469 0.103893,-0.057 z m 0.683683,1.00207 -0.02011,-0.007 h -0.328436 q -0.328436,0 -0.338491,0.003 -0.01005,0 -0.02681,0.003 -0.07373,0.0268 -0.09719,0.10389 l -0.0034,0.0168 v 0.11395 0.11729 l 0.0034,0.0134 q 0.02681,0.0838 0.107244,0.1106 0.01341,0.003 0.241301,0.003 h 0.231245 l 0.170921,-0.0972 q 0.170921,-0.10055 0.170921,-0.10055 0,0 -0.0034,-0.0235 0,-0.0235 0,-0.057 -0.0034,-0.0804 -0.0067,-0.0972 -0.01341,-0.0469 -0.05027,-0.0771 -0.01005,-0.007 -0.01676,-0.0101 -0.0067,-0.007 -0.01676,-0.01 -0.0067,-0.003 -0.01676,-0.007 z"
         id="path14974" /><path
         d="m 31.958294,172.967 q 0.05697,-0.0101 0.110596,0.0201 0.01005,0.007 0.03016,0.0268 0.02011,0.0201 0.02681,0.0335 0.0067,0.0101 0.01005,0.0235 0.01005,0.0201 0.01005,0.0436 0,0.0235 0,0.124 v 0.12401 l 0.211138,0.47589 0.207786,0.4759 h 0.05362 0.05362 l 0.207787,-0.4759 0.207786,-0.47589 v -0.12401 q 0,-0.10054 0,-0.124 0.0034,-0.0235 0.01005,-0.0436 0.01005,-0.0302 0.03687,-0.057 0.03016,-0.0268 0.06032,-0.0402 0.05362,-0.0168 0.107245,0 0.03016,0.0134 0.05697,0.0402 0.01676,0.0168 0.02346,0.0302 0.01005,0.0101 0.01676,0.0268 0.01005,0.0268 0.01005,0.19102 0,0.16422 -0.01341,0.19774 l -0.837848,1.90694 q -0.01341,0.0201 -0.03687,0.0402 -0.02346,0.0201 -0.04692,0.0268 -0.02681,0.0101 -0.281516,0.0101 h -0.234598 l -0.0134,-0.003 q -0.05362,-0.0168 -0.08714,-0.0603 -0.03016,-0.0402 -0.03016,-0.0972 0,-0.0536 0.03016,-0.0972 0.03351,-0.0402 0.08714,-0.057 0.0134,-0.003 0.191029,-0.007 h 0.180975 l 0.103893,-0.2413 q 0.01341,-0.0302 0.02346,-0.057 0.0134,-0.0268 0.02346,-0.0503 0.0134,-0.0235 0.02011,-0.0436 0.01005,-0.0235 0.01676,-0.0402 0.0067,-0.0168 0.0134,-0.0268 0.0067,-0.0134 0.0067,-0.0201 0.0034,-0.007 0.0034,-0.007 h -0.04022 q -0.07038,0 -0.110596,-0.0235 -0.03686,-0.0201 -0.05697,-0.057 0,-0.003 -0.12065,-0.27481 -0.117298,-0.27147 -0.237948,-0.54293 -0.12065,-0.27481 -0.124002,-0.28487 -0.01005,-0.0369 -0.01005,-0.19103 0,-0.16421 0.01005,-0.19102 0.01005,-0.0302 0.03687,-0.057 0.02011,-0.0201 0.03686,-0.0302 0.02011,-0.01 0.04692,-0.0168 z"
         id="path14976" /><path
         d="m 16.252002,177.71927 v -1.24001 h 0.717197 q 0.455789,0 0.586493,0.003 0.134056,0 0.14411,0 0.05697,0.0101 0.09384,0.057 0.03686,0.0436 0.03686,0.10055 0,0.0134 -0.0034,0.0268 0,0.01 -0.0034,0.0235 -0.0034,0.01 -0.01005,0.0235 -0.0034,0.01 -0.01005,0.0201 -0.0067,0.0101 -0.01676,0.0201 -0.0067,0.007 -0.01676,0.0134 -0.01005,0.007 -0.02346,0.0134 -0.01005,0.007 -0.02346,0.0101 -0.01005,0.003 -0.02346,0.007 -0.0134,0.003 -0.569736,0.003 h -0.559682 v 0.37871 0.37871 h 0.251354 q 0.207786,0 0.234597,0.003 0.03016,0 0.05697,0.0134 0.04692,0.0235 0.07038,0.0737 0.0067,0.0101 0.01005,0.0168 0.0034,0.007 0.0034,0.0168 0.0034,0.007 0.0034,0.0168 0,0.007 0,0.0201 0,0.0168 -0.0034,0.0268 0,0.0101 -0.0034,0.0201 -0.0034,0.0101 -0.01005,0.0235 -0.02346,0.0469 -0.07038,0.0737 -0.0034,0 -0.01005,0.003 -0.02346,0.0101 -0.227895,0.0134 -0.03351,0 -0.05362,0 h -0.251354 v 0.37871 0.3787 h 0.559682 q 0.556331,0 0.569736,0.003 0.05697,0.0101 0.09384,0.057 0.03686,0.0436 0.03686,0.10054 0,0.057 -0.03686,0.10389 -0.03687,0.0436 -0.09384,0.0536 -0.0134,0.003 -0.730603,0.003 h -0.717197 z"
         id="path14978" /><path
         d="m 18.815816,177.15624 q 0.0067,0 0.01676,0 0.0134,0 0.02681,0 0.01341,0 0.02011,0.003 0.02011,0.007 0.04022,0.0201 0.02346,0.0101 0.03686,0.0235 0.0034,0.003 0.07373,0.0905 0.07373,0.0871 0.17092,0.20443 0.234598,0.28152 0.237949,0.28152 0.0034,-0.003 0.237949,-0.28487 0.234597,-0.28152 0.2413,-0.29157 0.01005,-0.0101 0.02346,-0.0168 0.0134,-0.01 0.02681,-0.0168 0.07373,-0.0335 0.144109,0.0101 0.07373,0.0402 0.08043,0.124 0.0034,0.0134 0,0.0302 0,0.0134 -0.0067,0.0302 -0.0034,0.0134 -0.01341,0.0268 -0.0067,0.0134 -0.268111,0.32843 -0.258057,0.31503 -0.258057,0.31839 0,0 0.271463,0.32843 0.07038,0.0871 0.134055,0.16422 0.06368,0.0771 0.100542,0.124 0.04022,0.0469 0.04357,0.0503 0.03687,0.0469 0.03016,0.1106 -0.0034,0.0603 -0.05027,0.10054 -0.04692,0.0469 -0.113947,0.0436 -0.06703,-0.003 -0.113948,-0.0536 -0.0034,-0.003 -0.08043,-0.0972 -0.07708,-0.0938 -0.180975,-0.21784 l -0.248003,-0.30162 -0.01341,0.0101 q -0.01005,0.0134 -0.258057,0.31168 -0.244652,0.29828 -0.254706,0.30833 -0.06032,0.0536 -0.140758,0.0369 -0.07708,-0.0168 -0.110596,-0.0905 -0.01006,-0.0201 -0.01341,-0.0402 -0.0034,-0.0235 -0.0034,-0.0436 0.0034,-0.0201 0.01005,-0.0402 0.01005,-0.0201 0.02346,-0.0369 0.0067,-0.0134 0.278165,-0.33849 0.271463,-0.32843 0.271463,-0.32843 0,-0.003 -0.261409,-0.31839 -0.137407,-0.16757 -0.201083,-0.2413 -0.06032,-0.0771 -0.06368,-0.0871 -0.02681,-0.0436 -0.02011,-0.0871 l 0.01341,-0.0603 q 0.03686,-0.0737 0.12065,-0.0871 z"
         id="path14980" /><path
         d="m 21.16514,177.09256 q 0.03687,-0.01 0.07708,0 0.09049,0.0201 0.117299,0.11395 0.0034,0.01 0.0034,0.0201 0,0.0101 0,0.0503 l 0.0034,0.057 0.06368,-0.067 q 0.06368,-0.0637 0.08043,-0.0771 0.113947,-0.0871 0.254705,-0.10054 0.02346,-0.003 0.09049,0 0.06703,0 0.08714,0.003 0.02681,0.003 0.05027,0.0101 0.02681,0.007 0.05027,0.0168 0.02346,0.0101 0.04692,0.0235 0.02346,0.0101 0.04357,0.0201 0.0067,0.007 0.01341,0.0134 0.0067,0.003 0.0134,0.01 0.0067,0.003 0.01676,0.0134 0.01341,0.007 0.02346,0.0167 0.0134,0.0101 0.03351,0.0302 0.237948,0.20443 0.258057,0.22454 0.103893,0.10724 0.130704,0.26141 0.0034,0.0235 0.0034,0.32508 v 0.30163 l -0.0067,0.0268 q -0.02681,0.15081 -0.124002,0.25471 -0.0134,0.0134 -0.147461,0.12735 -0.130704,0.11395 -0.174272,0.15081 -0.107245,0.0871 -0.248003,0.10389 -0.02681,0.003 -0.08714,0.003 -0.05697,0 -0.08378,-0.003 -0.134056,-0.0168 -0.244651,-0.10054 -0.01676,-0.0134 -0.08043,-0.0771 l -0.06703,-0.0637 v 0.3586 q 0,0.30498 -0.0034,0.33849 0,0.0369 -0.01341,0.0637 -0.02346,0.0503 -0.07038,0.0737 -0.03351,0.0168 -0.07373,0.0168 -0.03687,0 -0.07038,-0.0168 -0.01341,-0.007 -0.03016,-0.0201 -0.01341,-0.01 -0.02346,-0.0235 -0.01005,-0.0134 -0.01676,-0.0302 -0.0034,-0.007 -0.01005,-0.0168 -0.0034,-0.007 -0.0034,-0.0134 -0.0034,-0.0134 -0.0034,-1.15288 v -1.13612 l 0.0034,-0.0168 q 0.02681,-0.0938 0.117298,-0.11395 z m 0.750712,0.32174 q -0.0067,-0.003 -0.02011,-0.003 -0.0134,0 -0.03016,0 -0.01676,-0.003 -0.03686,-0.003 -0.01676,0 -0.03351,0.003 -0.01341,0 -0.01676,0 -0.02011,0.003 -0.03687,0.01 -0.01341,0.007 -0.02681,0.0168 -0.01005,0.007 -0.157515,0.15416 -0.147461,0.14746 -0.157515,0.16087 -0.01005,0.0134 -0.01676,0.0235 -0.0067,0.0101 -0.01005,0.0268 l -0.0067,0.0201 v 0.22454 q -0.0034,0.22454 0,0.2413 0.0034,0.0134 0.01005,0.0302 0.0067,0.0168 0.01341,0.0302 l 0.311679,0.31504 0.0067,0.003 q 0.02681,0.0235 0.05697,0.0302 0.01676,0.007 0.07708,0.007 0.04022,0 0.05027,0 0.01341,-0.003 0.02346,-0.007 0.02681,-0.007 0.05027,-0.0235 0.02681,-0.0201 0.144109,-0.124 0.147462,-0.124 0.157516,-0.13741 0.01005,-0.0101 0.01676,-0.0235 0.01005,-0.0168 0.01341,-0.0335 l 0.0067,-0.0168 v -0.28152 q 0,-0.20108 0,-0.2413 0,-0.0436 -0.0034,-0.0536 -0.01006,-0.0302 -0.02681,-0.057 -0.0067,-0.007 -0.150812,-0.13071 -0.14411,-0.12735 -0.160867,-0.1374 -0.0067,-0.007 -0.01676,-0.0101 -0.0067,-0.003 -0.01676,-0.007 -0.0067,-0.003 -0.0134,-0.007 z"
         id="path14982" /><path
         d="m 23.893173,177.15624 q 0.0067,0 0.335139,0 0.33849,0 0.382058,0.0101 0.0067,0.003 0.0067,0.003 0.09719,0.0234 0.174272,0.0838 0.08043,0.057 0.127353,0.14411 0.04692,0.0871 0.06033,0.18433 0,0.0201 0.01676,0.42897 0.0034,0.1106 0.0067,0.23125 0.0034,0.1173 0.0067,0.21784 0.0034,0.10054 0.0067,0.15081 0.0067,0.19438 0.0034,0.20779 -0.0067,0.057 -0.05027,0.0972 -0.06703,0.0637 -0.154164,0.0369 -0.08714,-0.0268 -0.110596,-0.11729 -0.0034,-0.0134 -0.0034,-0.0201 v -0.0101 q -0.0034,0 -0.117299,0.067 -0.134056,0.0771 -0.157515,0.0838 l -0.284869,0.003 q -0.224543,0 -0.261408,0 -0.03687,-0.003 -0.08043,-0.0134 -0.130705,-0.0335 -0.224543,-0.1307 -0.110596,-0.11395 -0.130705,-0.27482 -0.0034,-0.0302 -0.0034,-0.14746 0,-0.1173 0.0034,-0.14746 0.02011,-0.15751 0.130705,-0.27146 0.05362,-0.057 0.12065,-0.0905 0.06703,-0.0369 0.147461,-0.0503 l 0.02681,-0.003 h 0.351896 0.351896 l 0.02681,0.003 q 0.02681,0.007 0.04357,0.0134 0.02011,0.003 0.02011,0.003 0.0034,-0.003 -0.0034,-0.1173 -0.0034,-0.11395 -0.0034,-0.13071 -0.01005,-0.0436 -0.03686,-0.0737 -0.02681,-0.0302 -0.06703,-0.0436 l -0.02011,-0.007 -0.325085,-0.003 q -0.271462,0 -0.304976,0 -0.03351,-0.003 -0.06033,-0.0168 -0.06032,-0.0302 -0.08378,-0.10054 0,-0.007 -0.0034,-0.01 0,-0.007 0,-0.0134 0,-0.007 0,-0.0201 0,-0.0268 0.0034,-0.0436 0.01005,-0.0302 0.03016,-0.057 0.04022,-0.0469 0.103894,-0.057 z m 0.683683,1.00207 -0.02011,-0.007 h -0.328436 q -0.328437,0 -0.338491,0.003 -0.01005,0 -0.02681,0.003 -0.07373,0.0268 -0.09719,0.10389 l -0.0034,0.0168 v 0.11394 0.1173 l 0.0034,0.0134 q 0.02681,0.0838 0.107244,0.11059 0.01341,0.003 0.2413,0.003 h 0.231246 l 0.170921,-0.0972 q 0.170921,-0.10054 0.170921,-0.10054 0,0 -0.0034,-0.0235 0,-0.0235 0,-0.057 -0.0034,-0.0804 -0.0067,-0.0972 -0.01341,-0.0469 -0.05027,-0.0771 -0.01005,-0.007 -0.01676,-0.0101 -0.0067,-0.007 -0.01676,-0.0101 -0.0067,-0.003 -0.01676,-0.007 z"
         id="path14984" /><path
         d="m 25.967683,177.15624 q 0.01005,0 0.01676,0 0.01005,0 0.02011,0 0.01006,0 0.02011,0.003 0.01005,0 0.01676,0.003 0.01005,0 0.01676,0.007 0.01005,0.003 0.02011,0.007 0.04692,0.0302 0.06703,0.0771 0.0067,0.0235 0.0067,0.0369 0.0034,0.0134 0.0034,0.067 l 0.0034,0.067 0.157516,-0.10054 q 0.160866,-0.10389 0.191029,-0.12065 0.02346,-0.0101 0.05027,-0.0201 0.02681,-0.0101 0.05362,-0.0168 0.02681,-0.007 0.05697,-0.0101 0.02011,0 0.08714,0 0.06703,-0.003 0.134055,0 0.06703,0 0.08043,0.003 0.160866,0.0268 0.271462,0.14076 0.02681,0.0268 0.05027,0.0603 0.02346,0.0335 0.04022,0.0704 0.01676,0.0335 0.02681,0.0737 0.01005,0.0369 0.01676,0.0771 0,0.0168 0.02011,0.59654 0.02011,0.57644 0.02011,0.61331 0,0.0302 -0.0034,0.0469 -0.0134,0.057 -0.06032,0.0905 -0.04692,0.0335 -0.103893,0.0302 -0.09719,-0.007 -0.137407,-0.0938 0,-0.003 -0.0034,-0.007 -0.01005,-0.0201 -0.02681,-0.51612 -0.0034,-0.0804 -0.0034,-0.124 -0.02011,-0.5999 -0.02346,-0.61666 -0.0034,-0.0134 -0.01005,-0.0268 -0.0034,-0.0134 -0.01005,-0.0235 -0.0067,-0.0134 -0.01676,-0.0235 -0.01005,-0.0101 -0.02011,-0.0168 -0.01005,-0.0101 -0.02346,-0.0168 -0.01005,-0.007 -0.02346,-0.0101 l -0.02011,-0.007 h -0.117299 q -0.130704,0 -0.160866,0.0134 -0.01341,0.007 -0.254706,0.16087 l -0.237949,0.15416 -0.0034,0.50941 q 0,0.43233 -0.0034,0.47925 0,0.0469 -0.01341,0.0737 -0.02346,0.0503 -0.07038,0.0737 -0.06368,0.0302 -0.127353,0.007 -0.01005,-0.003 -0.02011,-0.007 -0.01005,-0.007 -0.02011,-0.0134 -0.0067,-0.007 -0.01676,-0.0168 -0.03686,-0.0369 -0.04692,-0.0871 0,-0.0168 0,-0.76747 0,-0.75406 0,-0.77082 0.0067,-0.0268 0.01676,-0.0436 0.01005,-0.0201 0.03016,-0.0402 0.03687,-0.0369 0.08379,-0.0469 z"
         id="path14986" /><path
         d="m 29.62405,176.48261 q 0.03351,-0.007 0.07038,0.003 0.03351,0.007 0.06032,0.0302 0.02011,0.0168 0.03351,0.0402 0.01676,0.0201 0.02346,0.0436 0.0034,0.0134 0.0034,1.11936 l -0.0034,1.11937 q 0,0 -0.01341,0.0302 -0.02346,0.0503 -0.07373,0.0737 -0.02011,0.0101 -0.04022,0.0134 -0.02011,0.003 -0.04357,0.003 -0.02011,-0.003 -0.04022,-0.0101 -0.03016,-0.0101 -0.06032,-0.0369 -0.02681,-0.0302 -0.03687,-0.057 -0.01005,-0.0302 -0.01005,-0.0771 0,-0.0134 0,-0.0235 0,-0.0101 0,-0.0101 0,0 -0.01005,0.007 -0.0067,0.007 -0.02346,0.0201 -0.01341,0.01 -0.03016,0.0235 -0.06368,0.0536 -0.07373,0.0637 -0.02681,0.0201 -0.05697,0.0369 -0.02681,0.0168 -0.05697,0.0302 -0.02681,0.0101 -0.06032,0.0201 -0.03351,0.007 -0.06703,0.0101 -0.02681,0.003 -0.170921,0.003 -0.14411,0 -0.170921,-0.003 -0.06703,-0.007 -0.130704,-0.0302 -0.06032,-0.0268 -0.110596,-0.067 -0.110596,-0.0871 -0.16757,-0.14747 -0.110596,-0.11394 -0.130704,-0.27816 -0.0034,-0.0268 -0.0034,-0.37536 0.0034,-0.35189 0.0067,-0.3787 0.02011,-0.16422 0.127353,-0.27817 0.05697,-0.0603 0.16757,-0.14746 0.08714,-0.067 0.191029,-0.0871 0.05362,-0.0134 0.221192,-0.0134 0.147461,0 0.177623,0.007 0.130705,0.0168 0.231246,0.0905 0.0034,0.003 0.01676,0.0168 0.01341,0.0101 0.02681,0.0235 0.01676,0.0134 0.03351,0.0268 l 0.06368,0.0536 v -0.37871 q 0,-0.25806 0,-0.31838 0.0034,-0.0637 0.0034,-0.0704 0.0067,-0.0134 0.01005,-0.0235 0.0034,-0.0101 0.01005,-0.0201 0.0067,-0.01 0.01341,-0.0168 0.0067,-0.0101 0.01676,-0.0168 0.03351,-0.0335 0.07708,-0.0436 z m -0.532871,0.99536 q -0.01005,-0.003 -0.08043,-0.003 -0.07038,0 -0.140758,0.003 -0.06703,0 -0.07708,0 -0.02681,0.007 -0.04692,0.0201 -0.02011,0.0101 -0.08043,0.0637 -0.05697,0.0469 -0.07373,0.0637 -0.01341,0.0168 -0.02346,0.0369 0,0.003 -0.0034,0.007 -0.01005,0.0235 -0.01005,0.30833 0,0.0503 0,0.0804 0,0.29493 0,0.33179 0.0034,0.0369 0.01341,0.0603 0.0067,0.0168 0.01341,0.0268 0.01005,0.0101 0.02681,0.0268 0.01676,0.0134 0.05697,0.0469 0.08378,0.0737 0.117299,0.0838 l 0.01676,0.003 h 0.14411 q 0.12065,0 0.140758,0 0.02346,-0.003 0.04692,-0.0168 0.02011,-0.007 0.134056,-0.10725 0.100542,-0.0838 0.14411,-0.12065 0.02681,-0.0235 0.04022,-0.0369 0.01341,-0.0134 0.02011,-0.0268 0.01005,-0.0134 0.01676,-0.0335 l 0.0067,-0.0168 v -0.2212 -0.22119 l -0.0067,-0.0134 q -0.0034,-0.0168 -0.01341,-0.0302 -0.0067,-0.0168 -0.01676,-0.0302 -0.0067,-0.007 -0.08043,-0.067 -0.07038,-0.0637 -0.14411,-0.12735 -0.07373,-0.0637 -0.08378,-0.067 -0.02681,-0.0201 -0.05697,-0.0235 z"
         id="path14988" /><path
         d="m 31.16569,177.15624 q 0.02346,0 0.251355,0 0.184326,-0.003 0.224543,0 0.04022,0 0.08043,0.0101 0.110596,0.0235 0.197732,0.0938 0.12065,0.10054 0.157515,0.14076 0.05027,0.0503 0.08043,0.1106 0.03016,0.057 0.04357,0.124 0.01005,0.0503 0.01005,0.29492 0,0.18768 -0.0034,0.21449 0,0.0235 -0.01341,0.0503 -0.01676,0.0335 -0.04357,0.0536 -0.02346,0.0201 -0.06032,0.0302 -0.01005,0.003 -0.09384,0.007 -0.08043,0 -0.4826,0 H 30.94785 l 0.0034,0.0637 q 0,0.0737 0.01341,0.10055 0.01005,0.0235 0.02346,0.0402 0.01676,0.0134 0.07373,0.0603 0.08043,0.0704 0.113948,0.0838 l 0.01676,0.003 h 0.442383 q 0.365301,0 0.40887,0.003 0.04357,0 0.06703,0.0101 0.04357,0.0168 0.07038,0.0603 0.02681,0.0402 0.02681,0.0871 0,0.057 -0.03687,0.10389 -0.03686,0.0436 -0.09384,0.0536 -0.01676,0.003 -0.449086,0.003 -0.432329,0 -0.45914,-0.003 -0.04357,-0.003 -0.08714,-0.0168 -0.04357,-0.0134 -0.08378,-0.0335 -0.03687,-0.0201 -0.07038,-0.0469 -0.110596,-0.0871 -0.16757,-0.14747 -0.110596,-0.11394 -0.127353,-0.27816 -0.0034,-0.0235 -0.0034,-0.37536 0,-0.35524 0.0034,-0.38541 0.01005,-0.0804 0.04022,-0.14746 0.03351,-0.067 0.08714,-0.124 0.04022,-0.0402 0.160867,-0.14076 0.103893,-0.0871 0.244651,-0.10389 z m 0.496006,0.32508 -0.0134,-0.003 -0.221192,-0.003 q -0.174272,0 -0.207786,0.003 -0.03351,0 -0.05362,0.007 -0.01676,0.007 -0.03351,0.0201 -0.01676,0.0134 -0.06703,0.0536 -0.03016,0.0235 -0.05362,0.0469 -0.02011,0.0201 -0.02681,0.0235 -0.0067,0.01 -0.01341,0.0168 -0.0034,0.007 -0.0067,0.0168 -0.0034,0.007 -0.0067,0.0201 l -0.0067,0.0168 v 0.13406 l -0.0034,0.1307 h 0.472546 0.469195 v -0.1307 q 0,-0.1106 -0.0034,-0.12735 0,-0.0201 -0.0134,-0.0469 -0.0034,-0.003 -0.0067,-0.0101 -0.0034,-0.007 -0.0067,-0.0101 -0.0034,-0.007 -0.0067,-0.01 -0.01005,-0.0134 -0.07708,-0.0704 -0.05362,-0.0436 -0.07373,-0.057 -0.01676,-0.0134 -0.04022,-0.0201 z"
         id="path14990" /><path
         d="m 33.156416,177.15624 q 0.05697,-0.0101 0.110596,0.0201 0.01005,0.007 0.03016,0.0268 0.02011,0.0201 0.02681,0.0335 0.0067,0.0101 0.01005,0.0235 0.0034,0.007 0.0034,0.0134 0.0034,0.007 0.0034,0.0168 0.0034,0.007 0.0034,0.0234 0,0.0168 0,0.0369 0,0.0168 0,0.0536 0,0.0268 0,0.0503 0,0.0235 0,0.0369 0.0034,0.0134 0.0034,0.0134 0,0 0.05362,-0.0469 0.05362,-0.0469 0.127353,-0.11059 0.07708,-0.0637 0.134055,-0.11395 0.06032,-0.0503 0.06703,-0.0536 0.02011,-0.0134 0.05027,-0.0201 0.0067,-0.003 0.04022,-0.003 0.03351,0 0.160867,0 0.207786,0 0.261409,0.0101 0.144109,0.0369 0.2413,0.14746 0.100541,0.1106 0.12065,0.25806 0,0.0134 0,0.0402 0.0034,0.0268 0.0034,0.0536 0,0.0268 0,0.0503 0,0.0235 -0.0034,0.0335 -0.01005,0.057 -0.05362,0.0938 -0.04357,0.0369 -0.103893,0.0369 -0.02011,0 -0.04357,-0.003 -0.02011,-0.007 -0.03686,-0.0168 -0.01676,-0.0134 -0.03351,-0.0268 -0.0134,-0.0134 -0.02346,-0.0302 -0.01005,-0.0201 -0.01676,-0.0402 -0.0034,-0.0101 -0.0067,-0.0235 0,-0.0168 0,-0.0637 v -0.0737 l -0.0067,-0.0201 q -0.0067,-0.0168 -0.01341,-0.0268 -0.0034,-0.0101 -0.0134,-0.0235 -0.02011,-0.0235 -0.05362,-0.0402 -0.06368,-0.0134 -0.184327,-0.0134 h -0.140758 l -0.26476,0.22455 -0.26476,0.22454 v 0.44909 q 0,0.38205 -0.0034,0.42562 0,0.0402 -0.01341,0.067 -0.02346,0.0503 -0.07038,0.0737 -0.06368,0.0302 -0.127353,0.007 -0.01005,-0.003 -0.02011,-0.007 -0.01005,-0.007 -0.02011,-0.0134 -0.0067,-0.007 -0.01676,-0.0168 -0.03687,-0.0369 -0.04692,-0.0871 0,-0.0168 0,-0.76747 0,-0.75406 0,-0.77082 0.0067,-0.0268 0.01676,-0.0436 0.01005,-0.0201 0.03016,-0.0402 0.02011,-0.0201 0.03686,-0.0302 0.02011,-0.0101 0.04692,-0.0168 z"
         id="path14992" /><path
         d="m 21.178546,180.67185 q 0.01005,-0.003 0.325085,-0.003 0.31503,0 0.341842,0.003 0.110595,0.0134 0.204434,0.0737 0.09384,0.0603 0.154164,0.15416 0.01005,0.0168 0.184327,0.36195 0.107244,0.21449 0.140758,0.28487 0.03351,0.0704 0.04692,0.10724 0.01676,0.0369 0.03016,0.0804 0.01005,0.0469 0.01341,0.0871 0.0067,0.0369 0.0067,0.0871 0,0.0268 -0.0034,0.0503 0,0.0201 -0.0034,0.0402 0,0.0201 -0.0067,0.0402 -0.0034,0.0201 -0.0067,0.0436 -0.02011,0.0804 -0.21784,0.47255 -0.07373,0.14411 -0.127353,0.25135 -0.05362,0.1039 -0.06032,0.11395 -0.04022,0.067 -0.103893,0.12065 -0.107245,0.0871 -0.244652,0.10389 -0.03351,0.003 -0.355247,0.003 h -0.321733 l -0.01341,-0.007 q -0.05362,-0.0168 -0.08714,-0.057 -0.03016,-0.0436 -0.03016,-0.0972 0,-0.0268 0.0067,-0.0503 0.01005,-0.0268 0.02346,-0.0469 0.01676,-0.0201 0.03686,-0.0335 0.02346,-0.0168 0.05027,-0.0235 0.01341,-0.003 0.103893,-0.007 h 0.09384 v -0.91828 -0.91828 h -0.09384 q -0.09049,0 -0.103893,-0.007 -0.07373,-0.0201 -0.103893,-0.0871 -0.03016,-0.067 0,-0.13405 0.03351,-0.0771 0.12065,-0.0905 z m 0.653521,0.32173 q -0.01005,-0.003 -0.08043,-0.003 h -0.07373 v 0.91828 0.91828 h 0.07373 q 0.08043,0 0.110595,-0.0168 0.0067,-0.003 0.01341,-0.007 0.01005,-0.007 0.01676,-0.01 0.0067,-0.007 0.01341,-0.0134 0.0067,-0.007 0.0134,-0.0134 0.01005,-0.0134 0.278165,-0.54628 0.07708,-0.15416 0.08714,-0.18098 0.01341,-0.0503 0.02011,-0.10054 0.0067,-0.0804 -0.02011,-0.16086 -0.01005,-0.0268 -0.08714,-0.18098 -0.268111,-0.52952 -0.278165,-0.54628 -0.01676,-0.0167 -0.04022,-0.0302 -0.02011,-0.0168 -0.04692,-0.0268 z"
         id="path14994" /><path
         d="m 23.976957,181.34548 q 0.02346,0 0.251354,0 0.184327,-0.003 0.224543,0 0.04022,0 0.08043,0.01 0.110596,0.0235 0.197732,0.0938 0.12065,0.10054 0.157515,0.14076 0.05027,0.0503 0.08043,0.11059 0.03016,0.057 0.04357,0.12401 0.01005,0.0503 0.01005,0.29492 0,0.18768 -0.0034,0.21449 0,0.0235 -0.0134,0.0503 -0.01676,0.0335 -0.04357,0.0536 -0.02346,0.0201 -0.06032,0.0302 -0.01006,0.003 -0.09384,0.007 -0.08043,0 -0.4826,0 h -0.566385 l 0.0034,0.0637 q 0,0.0737 0.01341,0.10054 0.01005,0.0235 0.02346,0.0402 0.01676,0.0134 0.07373,0.0603 0.08043,0.0704 0.113947,0.0838 l 0.01676,0.003 h 0.442384 q 0.365301,0 0.408869,0.003 0.04357,0 0.06703,0.0101 0.04357,0.0168 0.07038,0.0603 0.02681,0.0402 0.02681,0.0871 0,0.057 -0.03686,0.10389 -0.03686,0.0436 -0.09384,0.0536 -0.01676,0.003 -0.449086,0.003 -0.432329,0 -0.459141,-0.003 -0.04357,-0.003 -0.08714,-0.0168 -0.04357,-0.0134 -0.08378,-0.0335 -0.03687,-0.0201 -0.07038,-0.0469 -0.110596,-0.0871 -0.167569,-0.14746 -0.110596,-0.11395 -0.127353,-0.27816 -0.0034,-0.0235 -0.0034,-0.37536 0,-0.35525 0.0034,-0.38541 0.01005,-0.0804 0.04022,-0.14746 0.03351,-0.067 0.08714,-0.124 0.04022,-0.0402 0.160867,-0.14076 0.103893,-0.0871 0.244651,-0.10389 z m 0.496006,0.32508 -0.01341,-0.003 -0.221192,-0.003 q -0.174272,0 -0.207786,0.003 -0.03351,0 -0.05362,0.007 -0.01676,0.007 -0.03351,0.0201 -0.01676,0.0134 -0.06703,0.0536 -0.03016,0.0235 -0.05362,0.0469 -0.02011,0.0201 -0.02681,0.0235 -0.0067,0.0101 -0.01341,0.0168 -0.0034,0.007 -0.0067,0.0168 -0.0034,0.007 -0.0067,0.0201 l -0.0067,0.0168 v 0.13406 l -0.0034,0.1307 h 0.472546 0.469194 v -0.1307 q 0,-0.1106 -0.0034,-0.12736 0,-0.0201 -0.01341,-0.0469 -0.0034,-0.003 -0.0067,-0.0101 -0.0034,-0.007 -0.0067,-0.0101 -0.0034,-0.007 -0.0067,-0.0101 -0.01005,-0.0134 -0.07708,-0.0704 -0.05362,-0.0436 -0.07373,-0.057 -0.01676,-0.0134 -0.04022,-0.0201 z"
         id="path14996" /><path
         d="m 25.940872,181.34548 q 0.06033,-0.0101 0.110596,0.0201 0.05027,0.0302 0.06703,0.0771 0,0.003 0,0.007 0.0034,0.003 0.0034,0.003 0,0.003 0.01676,-0.0101 0.09049,-0.0804 0.211138,-0.0972 0.160866,-0.0201 0.294922,0.0871 0.03016,0.0235 0.05362,0.0536 l 0.0067,0.01 0.03686,-0.0302 q 0.05027,-0.0469 0.07373,-0.0603 0.117298,-0.0771 0.251354,-0.0603 0.12065,0.0168 0.211138,0.10389 0.03351,0.0335 0.05697,0.0704 0.02681,0.0369 0.04022,0.0804 0.01676,0.0402 0.02011,0.0871 l 0.04692,1.31039 q 0,0.0168 -0.0067,0.0302 -0.0034,0.0134 -0.01005,0.0302 -0.01341,0.0268 -0.03016,0.0436 -0.01676,0.0168 -0.04357,0.0302 -0.01676,0.007 -0.03016,0.0101 -0.01341,0.003 -0.03016,0.007 -0.04692,0.003 -0.09049,-0.0234 -0.0034,0 -0.01005,-0.007 -0.0067,-0.007 -0.01341,-0.0101 -0.0067,-0.007 -0.01341,-0.0134 -0.0067,-0.0101 -0.0134,-0.0134 -0.0034,-0.007 -0.0067,-0.0134 -0.01341,-0.0235 -0.02011,-0.0536 0,-0.007 -0.01006,-0.19773 -0.0067,-0.19438 -0.0134,-0.45914 -0.02346,-0.64012 -0.02681,-0.65017 -0.0067,-0.0235 -0.03016,-0.0369 -0.01005,-0.003 -0.01341,-0.003 -0.0034,-0.003 -0.01005,-0.003 -0.01341,0.003 -0.02011,0.007 -0.0067,0 -0.03687,0.0268 -0.02681,0.0235 -0.07373,0.0637 l -0.100541,0.0871 -0.0034,0.58314 -0.0034,0.59654 q -0.01005,0.0369 -0.03016,0.0603 -0.02346,0.0268 -0.05362,0.0436 -0.06368,0.0302 -0.127353,0.007 -0.02681,-0.0101 -0.05362,-0.0335 -0.03351,-0.0302 -0.04692,-0.0804 -0.0034,-0.0101 -0.0034,-0.66022 l -0.0034,-0.64682 -0.0034,-0.0134 q -0.0067,-0.0101 -0.01676,-0.0168 -0.0067,-0.0101 -0.01676,-0.0168 -0.01006,-0.003 -0.01676,-0.003 -0.0034,0 -0.01341,0 -0.01341,0 -0.02011,0 -0.0034,0 -0.01005,0.007 -0.0067,0.003 -0.04022,0.0302 -0.03351,0.0268 -0.08378,0.0737 l -0.110596,0.0938 v 0.57308 q -0.0034,0.57309 -0.0067,0.58314 0,0.007 -0.0034,0.0134 -0.0034,0.007 -0.0067,0.0134 -0.0034,0.007 -0.0067,0.0134 -0.0034,0.007 -0.0067,0.0134 -0.0034,0.003 -0.0067,0.007 -0.02346,0.0268 -0.05362,0.0436 -0.06032,0.0302 -0.124002,0.007 -0.02011,-0.007 -0.03351,-0.0134 -0.01005,-0.0101 -0.02681,-0.0235 -0.02011,-0.0201 -0.03016,-0.0402 -0.01005,-0.0201 -0.01341,-0.0469 -0.0034,-0.0168 -0.0034,-0.76747 0,-0.75406 0.0034,-0.77082 0.0067,-0.0469 0.04357,-0.0838 0.03687,-0.0369 0.08378,-0.0469 z"
         id="path14998" /><path
         d="m 28.769446,181.34548 q 0.02011,0 0.261408,0 0.2413,0 0.261409,0.003 0.02011,0.003 0.04692,0.0101 0.03016,0.007 0.04692,0.0134 0.03351,0.0134 0.07038,0.0369 0.04022,0.0201 0.06368,0.0369 0.03686,0.0302 0.08714,0.0771 0.05362,0.0436 0.06368,0.057 0.06032,0.057 0.09384,0.13071 0.03686,0.0737 0.04692,0.15751 0,0.007 0,0.0201 0.0034,0.0134 0.0034,0.0369 0,0.0235 0,0.067 0,0.0436 0,0.10389 0,0.057 0,0.15081 0,0.35525 -0.0034,0.38541 -0.02346,0.16422 -0.140758,0.28152 -0.03687,0.0369 -0.150813,0.1307 -0.08379,0.067 -0.197732,0.0938 -0.05697,0.01 -0.298274,0.01 -0.248002,0 -0.301625,-0.01 -0.103893,-0.0235 -0.191029,-0.0905 -0.110596,-0.0871 -0.167569,-0.14746 -0.110596,-0.11395 -0.127353,-0.27816 -0.0034,-0.0235 -0.0034,-0.37536 0,-0.35525 0.0034,-0.38541 0.01005,-0.0804 0.04022,-0.14746 0.03351,-0.067 0.08714,-0.124 0.06368,-0.067 0.170921,-0.14746 0.100541,-0.0771 0.234597,-0.0972 z m 0.492654,0.32508 q -0.0034,-0.003 -0.01005,-0.003 -0.0067,0 -0.03351,0 -0.02681,0 -0.06703,0 -0.03686,-0.003 -0.124001,-0.003 -0.231246,0 -0.254706,0.0101 -0.01341,0.003 -0.02681,0.0101 -0.01005,0.007 -0.02011,0.0134 -0.01005,0.0101 -0.07038,0.0637 -0.05362,0.0469 -0.07038,0.0637 -0.0134,0.0168 -0.02346,0.0469 l -0.0067,0.0168 v 0.35525 q 0,0.0302 0,0.0804 0,0.28822 0.01005,0.31168 l 0.0034,0.003 q 0.01676,0.0335 0.09719,0.10055 0.04692,0.0402 0.06033,0.0536 0.01676,0.01 0.02681,0.0168 0.02681,0.0134 0.05362,0.0168 0.02681,0 0.21784,0 0.01341,0 0.03687,0 0.197732,0 0.221191,-0.01 0.0034,-0.003 0.0034,-0.003 0.02346,-0.0101 0.100542,-0.0771 0.03351,-0.0268 0.04692,-0.0402 0.01676,-0.0134 0.02681,-0.0268 0.01341,-0.0134 0.01676,-0.0201 0.0034,-0.0101 0.01005,-0.0268 l 0.0067,-0.0201 V 182.247 q 0,-0.248 0,-0.30162 0,-0.057 -0.0034,-0.0637 -0.0034,-0.0134 -0.01341,-0.0302 -0.0067,-0.0201 -0.01676,-0.0302 0,0 -0.01676,-0.0134 -0.0134,-0.0134 -0.03351,-0.0302 -0.02011,-0.0201 -0.04022,-0.0369 -0.02011,-0.0168 -0.03687,-0.0302 -0.01676,-0.0168 -0.02346,-0.0201 -0.02011,-0.0134 -0.04692,-0.0201 z"
         id="path15000" /></g></g></svg>
